<svg width="13" height="13" viewBox="0 0 13 13" fill="none" xmlns="http://www.w3.org/2000/svg">
<path d="M11.9707 2.47703C11.889 2.39631 11.7909 2.33218 11.6822 2.28857C11.5735 2.24495 11.4565 2.22276 11.3384 2.22334H10.4327V1.58202C10.4348 1.44137 10.4064 1.30181 10.3493 1.17194C10.2923 1.04208 10.2077 0.924668 10.1008 0.826952C9.99754 0.725903 9.87352 0.645951 9.73637 0.592025C9.59922 0.538099 9.45186 0.511341 9.30338 0.513401H8.8521C8.70356 0.511438 8.55617 0.538313 8.41902 0.592369C8.28187 0.646426 8.15787 0.726516 8.05467 0.827701C7.94777 0.925389 7.86317 1.0428 7.80607 1.17267C7.74898 1.30254 7.72062 1.44211 7.72274 1.58277V2.22409H5.01274V1.58202C5.01481 1.44137 4.98643 1.30181 4.92934 1.17194C4.87225 1.04208 4.78766 0.924668 4.6808 0.826952C4.57763 0.725996 4.45373 0.646098 4.31672 0.592175C4.17972 0.538251 4.03251 0.511444 3.88416 0.513401H3.43289C3.28434 0.511438 3.13695 0.538313 2.9998 0.592369C2.86265 0.646426 2.73865 0.726516 2.63545 0.827701C2.52859 0.925416 2.44401 1.04283 2.38692 1.17269C2.32983 1.30255 2.30145 1.44212 2.30352 1.58277V2.22409H1.40018C1.28213 2.22351 1.16519 2.2457 1.05648 2.28932C0.947783 2.33293 0.849602 2.39705 0.767929 2.47777C0.682682 2.55511 0.614961 2.64807 0.568899 2.751C0.522837 2.85392 0.499398 2.96466 0.500011 3.07644V11.6306C0.503058 11.8561 0.598755 12.0717 0.766805 12.2315C0.934854 12.3913 1.16204 12.4828 1.40018 12.4867H11.3353C11.5739 12.4836 11.8017 12.3925 11.9704 12.2328C12.1391 12.073 12.2354 11.8573 12.2386 11.6314V3.07868C12.2397 2.9664 12.2164 2.8551 12.1704 2.75163C12.1243 2.64816 12.0563 2.55471 11.9707 2.47703ZM3.43526 11.6306H1.40018V9.70667H3.4321L3.43526 11.6306ZM3.43526 9.27862H1.40018V7.14063H3.4321L3.43526 9.27862ZM3.43526 6.71259H1.40018V4.78862H3.4321L3.43526 6.71259ZM3.27719 3.65565C3.25581 3.63636 3.23882 3.61313 3.22726 3.58739C3.21571 3.56165 3.20984 3.53395 3.21002 3.50598V1.58202C3.21083 1.5255 3.23491 1.47151 3.27712 1.43154C3.31934 1.39157 3.37635 1.36877 3.43605 1.368H3.88416C3.94385 1.36877 4.00087 1.39157 4.04308 1.43154C4.0853 1.47151 4.10937 1.5255 4.11019 1.58202V3.50673C4.10937 3.56325 4.0853 3.61724 4.04308 3.65721C4.00087 3.69718 3.94385 3.71998 3.88416 3.72075H3.43289C3.40304 3.72098 3.37345 3.71539 3.34599 3.70431C3.31852 3.69324 3.29376 3.67693 3.27324 3.6564L3.27719 3.65565ZM6.14526 11.6299H3.88416V9.70667H6.1421L6.14526 11.6299ZM6.14526 9.27787H3.88416V7.14063H6.1421L6.14526 9.27787ZM6.14526 6.71184H3.88416V4.78862H6.1421L6.14526 6.71184ZM8.85527 11.6291H6.59337V9.70667H8.85131L8.85527 11.6291ZM8.85527 9.27712H6.59337V7.14063H8.85131L8.85527 9.27712ZM8.85527 6.71109H6.59337V4.78862H8.85131L8.85527 6.71109ZM8.6972 3.65415C8.67543 3.63542 8.65789 3.61269 8.64566 3.58735C8.63344 3.56201 8.62677 3.53458 8.62607 3.50673V1.58202C8.62669 1.52544 8.6507 1.47134 8.69296 1.43133C8.73521 1.39132 8.79235 1.36858 8.8521 1.368H9.30338C9.36313 1.36858 9.42027 1.39132 9.46252 1.43133C9.50478 1.47134 9.52879 1.52544 9.52941 1.58202V3.50673C9.52879 3.56331 9.50478 3.61741 9.46252 3.65742C9.42027 3.69743 9.36313 3.72017 9.30338 3.72075H8.8521C8.82225 3.72103 8.79265 3.71545 8.76518 3.70438C8.7377 3.6933 8.71295 3.67697 8.69246 3.6564L8.6972 3.65415ZM11.34 11.6284H9.30338V9.70667H11.3353L11.34 11.6284ZM11.34 9.27637H9.30338V7.14063H11.3353L11.34 9.27637ZM11.34 6.71034H9.30338V4.78862H11.3353L11.34 6.71034Z" fill="#333333"/>
</svg>
