<svg width="13" height="13" viewBox="0 0 13 13" fill="none" xmlns="http://www.w3.org/2000/svg">
<path d="M11.8345 2.47703C11.7528 2.39631 11.6546 2.33218 11.5459 2.28857C11.4372 2.24495 11.3203 2.22276 11.2022 2.22334H10.2965V1.58202C10.2986 1.44137 10.2702 1.30181 10.2131 1.17194C10.156 1.04208 10.0714 0.924668 9.96458 0.826952C9.86131 0.725903 9.73728 0.645951 9.60014 0.592025C9.46299 0.538099 9.31563 0.511341 9.16715 0.513401H8.71587C8.56733 0.511438 8.41994 0.538313 8.28279 0.592369C8.14564 0.646426 8.02164 0.726516 7.91844 0.827701C7.81154 0.925389 7.72693 1.0428 7.66984 1.17267C7.61275 1.30254 7.58439 1.44211 7.58651 1.58277V2.22409H4.8765V1.58202C4.87858 1.44137 4.85019 1.30181 4.79311 1.17194C4.73602 1.04208 4.65143 0.924668 4.54457 0.826952C4.44139 0.725996 4.3175 0.646098 4.18049 0.592175C4.04349 0.538251 3.89628 0.511444 3.74793 0.513401H3.29666C3.14811 0.511438 3.00072 0.538313 2.86357 0.592369C2.72642 0.646426 2.60242 0.726516 2.49922 0.827701C2.39236 0.925416 2.30778 1.04283 2.25069 1.17269C2.1936 1.30255 2.16522 1.44212 2.16729 1.58277V2.22409H1.26395C1.1459 2.22351 1.02896 2.2457 0.920254 2.28932C0.811553 2.33293 0.713372 2.39705 0.631699 2.47777C0.546451 2.55511 0.478731 2.64807 0.432669 2.751C0.386607 2.85392 0.363168 2.96466 0.36378 3.07644V11.6306C0.366827 11.8561 0.462525 12.0717 0.630574 12.2315C0.798624 12.3913 1.02581 12.4828 1.26395 12.4867H11.1991C11.4376 12.4836 11.6655 12.3925 11.8342 12.2328C12.0029 12.073 12.0991 11.8573 12.1024 11.6314V3.07868C12.1034 2.9664 12.0802 2.8551 12.0341 2.75163C11.9881 2.64816 11.9201 2.55471 11.8345 2.47703ZM3.29903 11.6306H1.26395V9.70667H3.29587L3.29903 11.6306ZM3.29903 9.27862H1.26395V7.14063H3.29587L3.29903 9.27862ZM3.29903 6.71259H1.26395V4.78862H3.29587L3.29903 6.71259ZM3.14096 3.65565C3.11958 3.63636 3.10259 3.61313 3.09103 3.58739C3.07948 3.56165 3.07361 3.53395 3.07379 3.50598V1.58202C3.0746 1.5255 3.09868 1.47151 3.14089 1.43154C3.18311 1.39157 3.24012 1.36877 3.29982 1.368H3.74793C3.80762 1.36877 3.86464 1.39157 3.90685 1.43154C3.94906 1.47151 3.97314 1.5255 3.97396 1.58202V3.50673C3.97314 3.56325 3.94906 3.61724 3.90685 3.65721C3.86464 3.69718 3.80762 3.71998 3.74793 3.72075H3.29666C3.26681 3.72098 3.23722 3.71539 3.20976 3.70431C3.18229 3.69324 3.15753 3.67693 3.13701 3.6564L3.14096 3.65565ZM6.00903 11.6299H3.74793V9.70667H6.00587L6.00903 11.6299ZM6.00903 9.27787H3.74793V7.14063H6.00587L6.00903 9.27787ZM6.00903 6.71184H3.74793V4.78862H6.00587L6.00903 6.71184ZM8.71904 11.6291H6.45714V9.70667H8.71508L8.71904 11.6291ZM8.71904 9.27712H6.45714V7.14063H8.71508L8.71904 9.27712ZM8.71904 6.71109H6.45714V4.78862H8.71508L8.71904 6.71109ZM8.56097 3.65415C8.5392 3.63542 8.52166 3.61269 8.50943 3.58735C8.49721 3.56201 8.49054 3.53458 8.48984 3.50673V1.58202C8.49046 1.52544 8.51447 1.47134 8.55673 1.43133C8.59898 1.39132 8.65612 1.36858 8.71587 1.368H9.16715C9.2269 1.36858 9.28404 1.39132 9.32629 1.43133C9.36855 1.47134 9.39256 1.52544 9.39318 1.58202V3.50673C9.39256 3.56331 9.36855 3.61741 9.32629 3.65742C9.28404 3.69743 9.2269 3.72017 9.16715 3.72075H8.71587C8.68602 3.72103 8.65642 3.71545 8.62895 3.70438C8.60147 3.6933 8.57672 3.67697 8.55623 3.6564L8.56097 3.65415ZM11.2038 11.6284H9.16715V9.70667H11.1991L11.2038 11.6284ZM11.2038 9.27637H9.16715V7.14063H11.1991L11.2038 9.27637ZM11.2038 6.71034H9.16715V4.78862H11.1991L11.2038 6.71034Z" fill="#333333"/>
</svg>
