<svg width="17" height="16" viewBox="0 0 17 16" fill="none" xmlns="http://www.w3.org/2000/svg">
<path d="M8.50001 1C7.88003 0.999378 7.28194 1.22914 6.82184 1.64469C6.36174 2.06023 6.07246 2.63192 6.01015 3.24875C5.94784 3.86559 6.11696 4.48357 6.48466 4.98274C6.85237 5.4819 7.39243 5.82663 8.00001 5.95V7H5.86701C5.11201 7 4.50001 7.612 4.50001 8.367V10.05C3.89298 10.1739 3.35359 10.5188 2.98641 11.0178C2.61922 11.5168 2.4504 12.1344 2.51267 12.7508C2.57493 13.3672 2.86386 13.9385 3.32343 14.354C3.783 14.7695 4.38047 14.9995 5.00001 14.9995C5.61954 14.9995 6.21701 14.7695 6.67658 14.354C7.13615 13.9385 7.42508 13.3672 7.48735 12.7508C7.54962 12.1344 7.38079 11.5168 7.0136 11.0178C6.64642 10.5188 6.10703 10.1739 5.50001 10.05V8.367C5.50001 8.164 5.66401 8 5.86701 8H11.134C11.336 8 11.5 8.164 11.5 8.367V10.05C10.893 10.1739 10.3536 10.5188 9.98641 11.0178C9.61922 11.5168 9.4504 12.1344 9.51267 12.7508C9.57493 13.3672 9.86386 13.9385 10.3234 14.354C10.783 14.7695 11.3805 14.9995 12 14.9995C12.6195 14.9995 13.217 14.7695 13.6766 14.354C14.1362 13.9385 14.4251 13.3672 14.4873 12.7508C14.5496 12.1344 14.3808 11.5168 14.0136 11.0178C13.6464 10.5188 13.107 10.1739 12.5 10.05V8.367C12.5 7.612 11.888 7 11.134 7H8.99901V5.95C9.6065 5.82665 10.1465 5.48199 10.5142 4.98294C10.8819 4.48388 11.0511 3.86601 10.9889 3.24925C10.9267 2.63249 10.6376 2.06082 10.1777 1.64519C9.71782 1.22957 9.11989 0.999627 8.50001 1ZM7.00001 3.5C7.00001 3.10218 7.15804 2.72065 7.43935 2.43934C7.72065 2.15804 8.10218 2 8.50001 2C8.89783 2 9.27936 2.15804 9.56067 2.43934C9.84197 2.72065 10 3.10218 10 3.5C10 3.89783 9.84197 4.27936 9.56067 4.56066C9.27936 4.84197 8.89783 5 8.50001 5C8.10218 5 7.72065 4.84197 7.43935 4.56066C7.15804 4.27936 7.00001 3.89783 7.00001 3.5ZM3.50001 12.5C3.50001 12.1022 3.65804 11.7206 3.93935 11.4393C4.22065 11.158 4.60218 11 5.00001 11C5.39783 11 5.77936 11.158 6.06067 11.4393C6.34197 11.7206 6.50001 12.1022 6.50001 12.5C6.50001 12.8978 6.34197 13.2794 6.06067 13.5607C5.77936 13.842 5.39783 14 5.00001 14C4.60218 14 4.22065 13.842 3.93935 13.5607C3.65804 13.2794 3.50001 12.8978 3.50001 12.5ZM12 11C12.197 11 12.392 11.0388 12.574 11.1142C12.756 11.1896 12.9214 11.3001 13.0607 11.4393C13.2 11.5786 13.3104 11.744 13.3858 11.926C13.4612 12.108 13.5 12.303 13.5 12.5C13.5 12.697 13.4612 12.892 13.3858 13.074C13.3104 13.256 13.2 13.4214 13.0607 13.5607C12.9214 13.6999 12.756 13.8104 12.574 13.8858C12.392 13.9612 12.197 14 12 14C11.6022 14 11.2206 13.842 10.9393 13.5607C10.658 13.2794 10.5 12.8978 10.5 12.5C10.5 12.1022 10.658 11.7206 10.9393 11.4393C11.2206 11.158 11.6022 11 12 11Z" fill="black"/>
</svg>
