<svg width="12" height="15" viewBox="0 0 12 15" fill="none" xmlns="http://www.w3.org/2000/svg">
<path d="M5.98161 0.387238C7.50223 0.387238 8.80212 0.87144 9.88127 1.83985C10.9604 2.80825 11.5 3.98258 11.5 5.36284C11.5 6.05296 11.3099 6.84884 10.9298 7.75046C10.5496 8.65207 10.0897 9.48691 9.55017 10.255C9.01059 11.023 8.47101 11.7465 7.93144 12.4255C7.39186 13.1045 6.93813 13.6444 6.57023 14.0451L5.98161 14.6128C5.83445 14.4792 5.63824 14.2788 5.39298 14.0117C5.14771 13.7445 4.71237 13.227 4.08696 12.4589C3.46154 11.6909 2.90357 10.9451 2.41304 10.2216C1.92252 9.49804 1.48105 8.6799 1.08863 7.76715C0.69621 6.8544 0.5 6.05296 0.5 5.36284C0.5 3.98258 1.03344 2.80825 2.10033 1.83985C3.16722 0.87144 4.46098 0.387238 5.98161 0.387238ZM5.98161 7.13268C6.52118 7.13268 6.98718 6.96015 7.3796 6.61508C7.77202 6.27002 7.96823 5.8526 7.96823 5.36284C7.96823 4.87307 7.77202 4.45565 7.3796 4.11059C6.98718 3.76552 6.52118 3.59299 5.98161 3.59299C5.44203 3.59299 4.98216 3.76552 4.60201 4.11059C4.22185 4.45565 4.03177 4.87307 4.03177 5.36284C4.03177 5.8526 4.22185 6.27002 4.60201 6.61508C4.98216 6.96015 5.44203 7.13268 5.98161 7.13268Z" fill="#333333"/>
</svg>
