<svg width="15" height="15" viewBox="0 0 15 15" fill="none" xmlns="http://www.w3.org/2000/svg">
<path d="M2.4867 2.58906C3.81865 1.23047 5.42355 0.551177 7.30138 0.551177C9.17922 0.551177 10.7841 1.23047 12.1161 2.58906C13.448 3.94766 14.114 5.58465 14.114 7.50004C14.114 9.41543 13.448 11.0524 12.1161 12.411C10.7841 13.7696 9.17922 14.4489 7.30138 14.4489C5.42355 14.4489 3.81865 13.7696 2.4867 12.411C1.15475 11.0524 0.48877 9.41543 0.48877 7.50004C0.48877 5.58465 1.15475 3.94766 2.4867 2.58906ZM2.87973 12.0101C4.10251 13.2574 5.57639 13.881 7.30138 13.881C9.02637 13.881 10.5003 13.2574 11.723 12.0101C12.9458 10.7629 13.5572 9.25953 13.5572 7.50004C13.5572 5.74055 12.9458 4.23719 11.723 2.98996C10.5003 1.74273 9.02637 1.11911 7.30138 1.11911C5.57639 1.11911 4.10251 1.74273 2.87973 2.98996C1.65696 4.23719 1.04557 5.74055 1.04557 7.50004C1.04557 9.25953 1.65696 10.7629 2.87973 12.0101ZM7.30138 7.50004V3.22382H7.85818V8.06798H4.1571V7.50004H7.30138Z" fill="#333333"/>
<path fill-rule="evenodd" clip-rule="evenodd" d="M7.30138 0.806143C5.49008 0.806143 3.94871 1.45841 2.66348 2.76934C1.37824 4.08028 0.73877 5.65248 0.73877 7.50001C0.73877 9.34754 1.37824 10.9197 2.66348 12.2307C3.94871 13.5416 5.49008 14.1939 7.30138 14.1939C9.11268 14.1939 10.6541 13.5416 11.9393 12.2307C13.2245 10.9197 13.864 9.34754 13.864 7.50001C13.864 5.65248 13.2245 4.08028 11.9393 2.76934C10.6541 1.45841 9.11268 0.806143 7.30138 0.806143ZM2.30992 2.40872C3.6886 1.00247 5.35701 0.296143 7.30138 0.296143C9.24575 0.296143 10.9142 1.00247 12.2928 2.40872C13.6715 3.81497 14.364 5.51675 14.364 7.50001C14.364 9.48326 13.6715 11.185 12.2928 12.5913C10.9142 13.9975 9.24575 14.7039 7.30138 14.7039C5.35701 14.7039 3.6886 13.9975 2.30992 12.5913C0.931249 11.185 0.23877 9.48326 0.23877 7.50001C0.23877 5.51675 0.931249 3.81497 2.30992 2.40872ZM2.70296 2.80961C3.97249 1.51469 5.50991 0.864078 7.30138 0.864078C9.09286 0.864078 10.6303 1.51469 11.8998 2.80961C13.1693 4.10453 13.8072 5.6727 13.8072 7.50001C13.8072 9.32731 13.1693 10.8955 11.8998 12.1904C10.6303 13.4853 9.09286 14.1359 7.30138 14.1359C5.50991 14.1359 3.97249 13.4853 2.70296 12.1904C1.43343 10.8955 0.79557 9.32731 0.79557 7.50001C0.79557 5.6727 1.43343 4.10453 2.70296 2.80961ZM7.30138 1.37408C5.64288 1.37408 4.23254 1.97069 3.05651 3.17024C1.88049 4.36978 1.29557 5.80834 1.29557 7.50001C1.29557 9.19168 1.88049 10.6302 3.05651 11.8298C4.23254 13.0293 5.64288 13.6259 7.30138 13.6259C8.95988 13.6259 10.3702 13.0293 11.5463 11.8298C12.7223 10.6302 13.3072 9.19168 13.3072 7.50001C13.3072 5.80834 12.7223 4.36978 11.5463 3.17024C10.3702 1.97069 8.95988 1.37408 7.30138 1.37408ZM7.05138 2.96878H8.10818V8.32294H3.9071V7.24501H7.05138V2.96878ZM7.55138 3.47878V7.75501H4.4071V7.81294H7.60818V3.47878H7.55138Z" fill="#333333"/>
</svg>
