<svg width="15" height="15" viewBox="0 0 15 15" fill="none" xmlns="http://www.w3.org/2000/svg">
<path d="M2.35047 2.58906C3.68242 1.23047 5.28732 0.551177 7.16515 0.551177C9.04299 0.551177 10.6479 1.23047 11.9798 2.58906C13.3118 3.94766 13.9778 5.58465 13.9778 7.50004C13.9778 9.41543 13.3118 11.0524 11.9798 12.411C10.6479 13.7696 9.04299 14.4489 7.16515 14.4489C5.28732 14.4489 3.68242 13.7696 2.35047 12.411C1.01852 11.0524 0.352539 9.41543 0.352539 7.50004C0.352539 5.58465 1.01852 3.94766 2.35047 2.58906ZM2.7435 12.0101C3.96628 13.2574 5.44016 13.881 7.16515 13.881C8.89014 13.881 10.364 13.2574 11.5868 12.0101C12.8096 10.7629 13.421 9.25953 13.421 7.50004C13.421 5.74055 12.8096 4.23719 11.5868 2.98996C10.364 1.74273 8.89014 1.11911 7.16515 1.11911C5.44016 1.11911 3.96628 1.74273 2.7435 2.98996C1.52073 4.23719 0.909339 5.74055 0.909339 7.50004C0.909339 9.25953 1.52073 10.7629 2.7435 12.0101ZM7.16515 7.50004V3.22382H7.72195V8.06798H4.02087V7.50004H7.16515Z" fill="#333333"/>
<path fill-rule="evenodd" clip-rule="evenodd" d="M7.16515 0.806143C5.35385 0.806143 3.81248 1.45841 2.52725 2.76934C1.24201 4.08028 0.602539 5.65248 0.602539 7.50001C0.602539 9.34754 1.24201 10.9197 2.52725 12.2307C3.81248 13.5416 5.35385 14.1939 7.16515 14.1939C8.97645 14.1939 10.5178 13.5416 11.8031 12.2307C13.0883 10.9197 13.7278 9.34754 13.7278 7.50001C13.7278 5.65248 13.0883 4.08028 11.8031 2.76934C10.5178 1.45841 8.97645 0.806143 7.16515 0.806143ZM2.17369 2.40872C3.55237 1.00247 5.22078 0.296143 7.16515 0.296143C9.10952 0.296143 10.7779 1.00247 12.1566 2.40872C13.5353 3.81497 14.2278 5.51675 14.2278 7.50001C14.2278 9.48326 13.5353 11.185 12.1566 12.5913C10.7779 13.9975 9.10952 14.7039 7.16515 14.7039C5.22078 14.7039 3.55237 13.9975 2.17369 12.5913C0.795019 11.185 0.102539 9.48326 0.102539 7.50001C0.102539 5.51675 0.795019 3.81497 2.17369 2.40872ZM2.56673 2.80961C3.83626 1.51469 5.37367 0.864078 7.16515 0.864078C8.95663 0.864078 10.494 1.51469 11.7636 2.80961C13.0331 4.10453 13.671 5.6727 13.671 7.50001C13.671 9.32731 13.0331 10.8955 11.7636 12.1904C10.494 13.4853 8.95663 14.1359 7.16515 14.1359C5.37367 14.1359 3.83626 13.4853 2.56673 12.1904C1.2972 10.8955 0.659339 9.32731 0.659339 7.50001C0.659339 5.6727 1.2972 4.10453 2.56673 2.80961ZM7.16515 1.37408C5.50665 1.37408 4.0963 1.97069 2.92028 3.17024C1.74426 4.36978 1.15934 5.80834 1.15934 7.50001C1.15934 9.19168 1.74426 10.6302 2.92028 11.8298C4.0963 13.0293 5.50665 13.6259 7.16515 13.6259C8.82365 13.6259 10.234 13.0293 11.41 11.8298C12.586 10.6302 13.171 9.19168 13.171 7.50001C13.171 5.80834 12.586 4.36978 11.41 3.17024C10.234 1.97069 8.82365 1.37408 7.16515 1.37408ZM6.91515 2.96878H7.97195V8.32294H3.77087V7.24501H6.91515V2.96878ZM7.41515 3.47878V7.75501H4.27087V7.81294H7.47195V3.47878H7.41515Z" fill="#333333"/>
</svg>
