<svg width="17" height="12" viewBox="0 0 17 12" fill="none" xmlns="http://www.w3.org/2000/svg">
<path d="M2.44134 3.99839C2.44127 3.41826 2.5854 2.84721 2.86077 2.33661C3.13614 1.826 3.53411 1.39185 4.01889 1.0732C4.50367 0.754554 5.06005 0.561405 5.638 0.511126C6.21594 0.460847 6.79732 0.555016 7.32984 0.785162C7.86237 1.01531 8.32933 1.37421 8.68874 1.8296C9.04815 2.28498 9.28872 2.82256 9.38883 3.39398C9.48894 3.96541 9.44544 4.55276 9.26225 5.1032C9.07905 5.65364 8.76191 6.14992 8.33934 6.54739C9.13614 6.93404 9.82796 7.50714 10.3561 8.21809C10.8843 8.92904 11.2332 9.75687 11.3733 10.6314C11.3888 10.7287 11.3849 10.8281 11.3619 10.9239C11.3389 11.0197 11.2973 11.11 11.2394 11.1898C11.1815 11.2695 11.1085 11.337 11.0245 11.3885C10.9405 11.44 10.8471 11.4745 10.7498 11.4899C10.6525 11.5053 10.5531 11.5014 10.4573 11.4784C10.3615 11.4555 10.2712 11.4138 10.1915 11.3559C10.1117 11.298 10.0442 11.225 9.99271 11.141C9.94121 11.057 9.90677 10.9637 9.89134 10.8664C9.74135 9.92669 9.26127 9.07125 8.5373 8.45368C7.81334 7.83611 6.89292 7.49686 5.94134 7.49686C4.98975 7.49686 4.06933 7.83611 3.34537 8.45368C2.62141 9.07125 2.14132 9.92669 1.99134 10.8664C1.97584 10.9637 1.94133 11.057 1.88977 11.141C1.83822 11.2249 1.77063 11.2979 1.69086 11.3558C1.6111 11.4136 1.52072 11.4552 1.42489 11.4781C1.32905 11.5011 1.22965 11.5049 1.13234 11.4894C1.03503 11.4739 0.941723 11.4394 0.85775 11.3878C0.773778 11.3363 0.700783 11.2687 0.642932 11.1889C0.585081 11.1091 0.543508 11.0188 0.520585 10.9229C0.497663 10.8271 0.493841 10.7277 0.509337 10.6304C0.649671 9.7562 0.998712 8.92874 1.52687 8.21815C2.05503 7.50756 2.74673 6.93479 3.54334 6.54839C3.19501 6.22132 2.91749 5.82626 2.72794 5.38765C2.53839 4.94904 2.44084 4.4762 2.44134 3.99839ZM11.4413 2.49839C12.0223 2.49879 12.5908 2.66785 13.0775 2.98504C13.5643 3.30222 13.9486 3.7539 14.1837 4.28523C14.4187 4.81657 14.4945 5.40472 14.4018 5.97829C14.3091 6.55186 14.0518 7.08617 13.6613 7.51639C14.27 7.81857 14.8109 8.24143 15.251 8.75923C15.6911 9.27703 16.0212 9.87896 16.2213 10.5284C16.261 10.6545 16.2666 10.7888 16.2375 10.9177C16.2085 11.0466 16.1458 11.1656 16.0559 11.2624C15.9661 11.3593 15.8521 11.4307 15.7258 11.4693C15.5994 11.508 15.465 11.5125 15.3363 11.4824C15.2078 11.4524 15.0893 11.3892 14.993 11.2989C14.8966 11.2087 14.8257 11.0947 14.7873 10.9684C14.6081 10.3886 14.2815 9.86524 13.8395 9.44947C13.3974 9.0337 12.855 8.73976 12.2653 8.59639C12.1016 8.55685 11.9559 8.46334 11.8518 8.33091C11.7476 8.19848 11.6911 8.03485 11.6913 7.86639V7.51439C11.6912 7.37475 11.7301 7.23787 11.8036 7.11914C11.8771 7.00042 11.9823 6.90457 12.1073 6.84239C12.4105 6.69214 12.654 6.44381 12.7982 6.13773C12.9424 5.83166 12.9789 5.48581 12.9017 5.15637C12.8246 4.82693 12.6383 4.53326 12.3732 4.32304C12.1081 4.11282 11.7797 3.99841 11.4413 3.99839C11.2424 3.99839 11.0517 3.91937 10.911 3.77872C10.7704 3.63806 10.6913 3.4473 10.6913 3.24839C10.6913 3.04947 10.7704 2.85871 10.911 2.71806C11.0517 2.5774 11.2424 2.49839 11.4413 2.49839ZM5.94134 1.99839C5.675 1.99236 5.41014 2.03961 5.16231 2.13736C4.91448 2.2351 4.68868 2.38138 4.49816 2.56759C4.30764 2.7538 4.15625 2.9762 4.05286 3.22173C3.94948 3.46726 3.89619 3.73097 3.89612 3.99738C3.89605 4.26378 3.94921 4.52752 4.05247 4.7731C4.15574 5.01868 4.30702 5.24115 4.49745 5.42746C4.68787 5.61377 4.9136 5.76016 5.16138 5.85803C5.40916 5.9559 5.674 6.00328 5.94034 5.99739C6.4629 5.98583 6.96017 5.77016 7.32571 5.39655C7.69124 5.02293 7.89599 4.52106 7.89612 3.99838C7.89625 3.47569 7.69175 2.97372 7.32641 2.59992C6.96106 2.22612 6.46389 2.0102 5.94134 1.99839Z" fill="black"/>
</svg>
