<svg width="20" height="20" viewBox="0 0 20 20" fill="none" xmlns="http://www.w3.org/2000/svg">
<g clip-path="url(#clip0_308_93)">
<path d="M8.66797 11.9258L11.9414 10.0039L8.66797 8.08203V11.9258Z" fill="white"/>
<path d="M10 0C4.47656 0 0 4.47656 0 10C0 15.5234 4.47656 20 10 20C15.5234 20 20 15.5234 20 10C20 4.47656 15.5234 0 10 0ZM15 11.7891C15 13.5117 13.2773 13.5117 13.2773 13.5117H6.72266C5 13.5117 5 11.7891 5 11.7891V8.21484C5 6.49219 6.72266 6.49219 6.72266 6.49219H13.2773C15 6.49219 15 8.21484 15 8.21484V11.7891Z" fill="white"/>
</g>
<defs>
<clipPath id="clip0_308_93">
<rect width="20" height="20" fill="white"/>
</clipPath>
</defs>
</svg>
